# xmcd CD database file
#
# Track frame offsets:
#	150
#	10384
#	21272
#	32285
#	42936
#	53687
#	66082
#	78523
#	93773
#	103510
#	116185
#	127657
#	140823
#	153805
#	165768
#	179584
#	192465
#	205544
#	215548
#	228272
#	241513
#	254073
#	266723
#	279166
#
# Disc length: 3867 seconds
#
# Revision: 0
# Processed by: cddbd v1.5.2PL0 Copyright (c) Steve Scherf et al.
# Submitted via: CDex 1.51
#
DISCID=3b0f1918
DTITLE=Howlin' Wolf - Howlin' Wolf/Moanin' in the Moonlight
DYEAR=1961
DGENRE=Blues
TTITLE0=Shake For Me
TTITLE1=The Red Rooster
TTITLE2=You'll Be Mine
TTITLE3=Who's Been Talkin'
TTITLE4=Wang Dang Doodle
TTITLE5=Little Baby
TTITLE6=Spoonful
TTITLE7=Going Down Slow
TTITLE8=Down In The Bottom
TTITLE9=Back Door Man
TTITLE10=Howlin' For My Baby
TTITLE11=Tell Me
TTITLE12=Moanin' At Midnight
TTITLE13=How Many More Years
TTITLE14=Smokestack Lightnin'
TTITLE15=Baby How Long
TTITLE16=No Place To Go
TTITLE17=All Night Boogie
TTITLE18=Evil
TTITLE19=I'm Leavin' You
TTITLE20=Moanin' For My Baby
TTITLE21=I Asked For Water (She Gave Me Gasoline)
TTITLE22=Forty Four
TTITLE23=Somebody In My Home
EXTD=YEAR: 1961
EXTT0=
EXTT1=
EXTT2=
EXTT3=
EXTT4=
EXTT5=
EXTT6=
EXTT7=
EXTT8=
EXTT9=
EXTT10=
EXTT11=
EXTT12=
EXTT13=
EXTT14=
EXTT15=
EXTT16=
EXTT17=
EXTT18=
EXTT19=
EXTT20=
EXTT21=
EXTT22=
EXTT23=
PLAYORDER=
